<?xml version="1.0" encoding="utf-8"?>
<svg xmlns="http://www.w3.org/2000/svg"><symbol viewBox="0 0 24 24" fill="none" stroke="currentColor" stroke-width="2" stroke-linecap="round" stroke-linejoin="round" class="aafeather aafeather-arrow-right" id="arrow-right" xmlns="http://www.w3.org/2000/svg"><line x1="5" y1="12" x2="19" y2="12"/><polyline points="12 5 19 12 12 19"/></symbol><symbol viewBox="0 0 24 24" fill="none" stroke="currentColor" stroke-width="2" stroke-linecap="round" stroke-linejoin="round" class="abfeather abfeather-award" id="award" xmlns="http://www.w3.org/2000/svg"><circle cx="12" cy="8" r="7"/><polyline points="8.21 13.89 7 23 12 20 17 23 15.79 13.88"/></symbol><symbol viewBox="0 0 24 24" fill="none" stroke="currentColor" stroke-width="2" stroke-linecap="round" stroke-linejoin="round" class="acfeather acfeather-bar-chart" id="bar-chart" xmlns="http://www.w3.org/2000/svg"><line x1="12" y1="20" x2="12" y2="10"/><line x1="18" y1="20" x2="18" y2="4"/><line x1="6" y1="20" x2="6" y2="16"/></symbol><symbol viewBox="0 0 24 24" id="bar-chart-horizontal" xmlns="http://www.w3.org/2000/svg"><g transform="matrix(0 -1 -1 0 20 19)" stroke="currentColor" stroke-width="2" fill="none" fill-rule="evenodd" stroke-linecap="round" stroke-linejoin="round"><line x1="7" y1="16" x2="7" y2="6"/><line x1="13" y1="16" x2="13"/><line x1="1" y1="16" x2="1" y2="12"/></g></symbol><symbol viewBox="0 0 24 24" id="bulb" xmlns="http://www.w3.org/2000/svg"><g fill="none" fill-rule="evenodd" stroke="currentColor" stroke-linecap="round" stroke-linejoin="round" stroke-width="2"><g transform="translate(1 1)"><path d="M11 16a5 5 0 100-10 5 5 0 000 10z"/><line x1="11" x2="11" y2="2"/><line x1="3.22" y1="3.22" x2="4.64" y2="4.64"/><line y1="11" x2="2" y2="11"/><line x1="20" y1="11" x2="22" y2="11"/><line x1="17.36" y1="4.64" x2="18.78" y2="3.22"/></g><path d="M15 17l-.734 4.687A1.44 1.44 0 0112.828 23h-1.676a1.44 1.44 0 01-1.438-1.313L9 17c1.324.29 2.32.436 2.99.436.67 0 1.673-.145 3.01-.436z"/><line x1="14" y1="22" x2="10" y2="22"/></g></symbol><symbol viewBox="0 0 24 24" fill="none" stroke="currentColor" stroke-width="2" stroke-linecap="round" stroke-linejoin="round" class="affeather affeather-check" id="check" xmlns="http://www.w3.org/2000/svg"><polyline points="20 6 9 17 4 12"/></symbol><symbol viewBox="0 0 24 24" fill="none" stroke="currentColor" stroke-width="2" stroke-linecap="round" stroke-linejoin="round" class="agfeather agfeather-chevron-down" id="chevron-down" xmlns="http://www.w3.org/2000/svg"><polyline points="6 9 12 15 18 9"/></symbol><symbol viewBox="0 0 24 24" fill="none" stroke="currentColor" stroke-width="2" stroke-linecap="round" stroke-linejoin="round" class="ahfeather ahfeather-chevron-right" id="chevron-right" xmlns="http://www.w3.org/2000/svg"><polyline points="9 18 15 12 9 6"/></symbol><symbol viewBox="0 0 24 24" fill="none" stroke="currentColor" stroke-width="2" stroke-linecap="round" stroke-linejoin="round" class="aifeather aifeather-circle" id="circle" xmlns="http://www.w3.org/2000/svg"><circle cx="12" cy="12" r="10"/></symbol><symbol viewBox="0 0 24 24" fill="none" stroke="currentColor" stroke-width="2" stroke-linecap="round" stroke-linejoin="round" class="ajfeather ajfeather-cloud-off" id="cloud-off" xmlns="http://www.w3.org/2000/svg"><path d="M22.61 16.95A5 5 0 0018 10h-1.26a8 8 0 00-7.05-6M5 5a8 8 0 004 15h9a5 5 0 001.7-.3"/><line x1="1" y1="1" x2="23" y2="23"/></symbol><symbol viewBox="0 0 24 24" fill="none" stroke="currentColor" stroke-width="2" stroke-linecap="round" stroke-linejoin="round" class="akfeather akfeather-copy" id="copy" xmlns="http://www.w3.org/2000/svg"><rect x="9" y="9" width="13" height="13" rx="2" ry="2"/><path d="M5 15H4a2 2 0 01-2-2V4a2 2 0 012-2h9a2 2 0 012 2v1"/></symbol><symbol viewBox="0 0 24 24" fill="none" stroke="currentColor" stroke-width="2" stroke-linecap="round" stroke-linejoin="round" class="alfeather alfeather-corner-down-right" id="corner-down-right" xmlns="http://www.w3.org/2000/svg"><polyline points="15 10 20 15 15 20"/><path d="M4 4v7a4 4 0 004 4h12"/></symbol><symbol viewBox="0 0 24 24" fill="none" stroke="currentColor" stroke-width="2" stroke-linecap="round" stroke-linejoin="round" class="amfeather amfeather-cpu" id="cpu" xmlns="http://www.w3.org/2000/svg"><rect x="4" y="4" width="16" height="16" rx="2" ry="2"/><rect x="9" y="9" width="6" height="6"/><line x1="9" y1="1" x2="9" y2="4"/><line x1="15" y1="1" x2="15" y2="4"/><line x1="9" y1="20" x2="9" y2="23"/><line x1="15" y1="20" x2="15" y2="23"/><line x1="20" y1="9" x2="23" y2="9"/><line x1="20" y1="14" x2="23" y2="14"/><line x1="1" y1="9" x2="4" y2="9"/><line x1="1" y1="14" x2="4" y2="14"/></symbol><symbol viewBox="0 0 24 24" fill="none" stroke="currentColor" stroke-width="2" stroke-linecap="round" stroke-linejoin="round" class="anfeather anfeather-download" id="download" xmlns="http://www.w3.org/2000/svg"><path d="M21 15v4a2 2 0 01-2 2H5a2 2 0 01-2-2v-4"/><polyline points="7 10 12 15 17 10"/><line x1="12" y1="15" x2="12" y2="3"/></symbol><symbol viewBox="0 0 24 24" fill="none" stroke="currentColor" stroke-width="2" stroke-linecap="round" stroke-linejoin="round" class="aofeather aofeather-edit" id="edit" xmlns="http://www.w3.org/2000/svg"><path d="M11 4H4a2 2 0 00-2 2v14a2 2 0 002 2h14a2 2 0 002-2v-7"/><path d="M18.5 2.5a2.121 2.121 0 013 3L12 15l-4 1 1-4 9.5-9.5z"/></symbol><symbol viewBox="0 0 24 24" fill="none" stroke="currentColor" stroke-width="2" stroke-linecap="round" stroke-linejoin="round" class="apfeather apfeather-external-link" id="external-link" xmlns="http://www.w3.org/2000/svg"><path d="M18 13v6a2 2 0 01-2 2H5a2 2 0 01-2-2V8a2 2 0 012-2h6"/><polyline points="15 3 21 3 21 9"/><line x1="10" y1="14" x2="21" y2="3"/></symbol><symbol viewBox="0 0 24 24" fill="none" stroke="currentColor" stroke-width="2" stroke-linecap="round" stroke-linejoin="round" class="aqfeather aqfeather-eye" id="eye" xmlns="http://www.w3.org/2000/svg"><path d="M1 12s4-8 11-8 11 8 11 8-4 8-11 8-11-8-11-8z"/><circle cx="12" cy="12" r="3"/></symbol><symbol viewBox="0 0 24 24" fill="none" stroke="currentColor" stroke-width="2" stroke-linecap="round" stroke-linejoin="round" class="arfeather arfeather-eye-off" id="eye-off" xmlns="http://www.w3.org/2000/svg"><path d="M17.94 17.94A10.07 10.07 0 0112 20c-7 0-11-8-11-8a18.45 18.45 0 015.06-5.94M9.9 4.24A9.12 9.12 0 0112 4c7 0 11 8 11 8a18.5 18.5 0 01-2.16 3.19m-6.72-1.07a3 3 0 11-4.24-4.24"/><line x1="1" y1="1" x2="23" y2="23"/></symbol><symbol viewBox="0 0 24 24" fill="none" stroke="currentColor" stroke-width="2" stroke-linecap="round" stroke-linejoin="round" class="asfeather asfeather-frown" id="frown" xmlns="http://www.w3.org/2000/svg"><circle cx="12" cy="12" r="10"/><path d="M16 16s-1.5-2-4-2-4 2-4 2"/><line x1="9" y1="9" x2="9.01" y2="9"/><line x1="15" y1="9" x2="15.01" y2="9"/></symbol><symbol viewBox="0 0 24 24" fill="none" stroke="currentColor" stroke-width="2" stroke-linecap="round" stroke-linejoin="round" class="atfeather atfeather-globe" id="globe" xmlns="http://www.w3.org/2000/svg"><circle cx="12" cy="12" r="10"/><line x1="2" y1="12" x2="22" y2="12"/><path d="M12 2a15.3 15.3 0 014 10 15.3 15.3 0 01-4 10 15.3 15.3 0 01-4-10 15.3 15.3 0 014-10z"/></symbol><symbol viewBox="0 0 24 24" fill="none" stroke="currentColor" stroke-width="2" stroke-linecap="round" stroke-linejoin="round" class="aufeather aufeather-info" id="info" xmlns="http://www.w3.org/2000/svg"><circle cx="12" cy="12" r="10"/><line x1="12" y1="16" x2="12" y2="12"/><line x1="12" y1="8" x2="12.01" y2="8"/></symbol><symbol viewBox="0 0 24 24" fill="none" stroke="currentColor" stroke-width="2" stroke-linecap="round" stroke-linejoin="round" class="avfeather avfeather-key" id="key" xmlns="http://www.w3.org/2000/svg"><path d="M21 2l-2 2m-7.61 7.61a5.5 5.5 0 11-7.778 7.778 5.5 5.5 0 017.777-7.777zm0 0L15.5 7.5m0 0l3 3L22 7l-3-3m-3.5 3.5L19 4"/></symbol><symbol viewBox="0 0 24 24" fill="none" stroke="currentColor" stroke-width="2" stroke-linecap="round" stroke-linejoin="round" class="awfeather awfeather-lock" id="lock" xmlns="http://www.w3.org/2000/svg"><rect x="3" y="11" width="18" height="11" rx="2" ry="2"/><path d="M7 11V7a5 5 0 0110 0v4"/></symbol><symbol viewBox="0 0 24 24" fill="none" stroke="currentColor" stroke-width="2" stroke-linecap="round" stroke-linejoin="round" class="axfeather axfeather-log-in" id="log-in" xmlns="http://www.w3.org/2000/svg"><path d="M15 3h4a2 2 0 012 2v14a2 2 0 01-2 2h-4"/><polyline points="10 17 15 12 10 7"/><line x1="15" y1="12" x2="3" y2="12"/></symbol><symbol viewBox="0 0 24 24" fill="none" stroke="currentColor" stroke-width="2" stroke-linecap="round" stroke-linejoin="round" class="ayfeather ayfeather-log-out" id="log-out" xmlns="http://www.w3.org/2000/svg"><path d="M9 21H5a2 2 0 01-2-2V5a2 2 0 012-2h4"/><polyline points="16 17 21 12 16 7"/><line x1="21" y1="12" x2="9" y2="12"/></symbol><symbol viewBox="0 0 24 24" fill="none" stroke="currentColor" stroke-width="2" stroke-linecap="round" stroke-linejoin="round" class="azfeather azfeather-mail" id="mail" xmlns="http://www.w3.org/2000/svg"><path d="M4 4h16c1.1 0 2 .9 2 2v12c0 1.1-.9 2-2 2H4c-1.1 0-2-.9-2-2V6c0-1.1.9-2 2-2z"/><polyline points="22,6 12,13 2,6"/></symbol><symbol viewBox="0 0 24 24" id="mask" xmlns="http://www.w3.org/2000/svg"><path d="M17.706 6H6.294C2.818 6 0 8.803 0 12.26c0 3.458 2.818 6.262 6.294 6.262 2.526 0 3.784-3.616 5.706-3.616 1.922 0 3.18 3.616 5.706 3.616 3.476 0 6.294-2.804 6.294-6.261C24 8.803 21.182 6 17.706 6zM6.261 14.348c-1.729 0-3.13-1.322-3.13-2.951 0-1.63 6.26-1.63 6.26 0s-1.402 2.95-3.13 2.95zm11.478 0c-1.728 0-3.13-1.322-3.13-2.951 0-1.63 6.26-1.63 6.26 0s-1.4 2.95-3.13 2.95z" fill="currentColor"/></symbol><symbol viewBox="0 0 24 24" fill="none" stroke="currentColor" stroke-width="2" stroke-linecap="round" stroke-linejoin="round" class="bbfeather bbfeather-meh" id="meh" xmlns="http://www.w3.org/2000/svg"><circle cx="12" cy="12" r="10"/><line x1="8" y1="15" x2="16" y2="15"/><line x1="9" y1="9" x2="9.01" y2="9"/><line x1="15" y1="9" x2="15.01" y2="9"/></symbol><symbol viewBox="0 0 24 24" fill="none" stroke="currentColor" stroke-width="2" stroke-linecap="round" stroke-linejoin="round" class="bcfeather bcfeather-message-square" id="message-square" xmlns="http://www.w3.org/2000/svg"><path d="M21 15a2 2 0 01-2 2H7l-4 4V5a2 2 0 012-2h14a2 2 0 012 2z"/></symbol><symbol viewBox="0 0 24 24" id="message-square-off" xmlns="http://www.w3.org/2000/svg"><g transform="translate(1 1)" stroke="currentColor" stroke-width="2" fill="none" fill-rule="evenodd" stroke-linecap="round" stroke-linejoin="round"><polyline points="15.9851085 16 6 16 2 20 2 2.30851417"/><path d="M7.956 2H18a2 2 0 012 2v10.057"/><line x2="22" y2="22"/></g></symbol><symbol viewBox="0 0 24 24" fill="none" stroke="currentColor" stroke-width="2" stroke-linecap="round" stroke-linejoin="round" class="befeather befeather-move" id="move" xmlns="http://www.w3.org/2000/svg"><polyline points="5 9 2 12 5 15"/><polyline points="9 5 12 2 15 5"/><polyline points="15 19 12 22 9 19"/><polyline points="19 9 22 12 19 15"/><line x1="2" y1="12" x2="22" y2="12"/><line x1="12" y1="2" x2="12" y2="22"/></symbol><symbol viewBox="0 0 24 24" fill="none" stroke="currentColor" stroke-width="2" stroke-linecap="round" stroke-linejoin="round" class="bffeather bffeather-pie-chart" id="pie-chart" xmlns="http://www.w3.org/2000/svg"><path d="M21.21 15.89A10 10 0 118 2.83"/><path d="M22 12A10 10 0 0012 2v10z"/></symbol><symbol viewBox="0 0 24 24" fill="none" stroke="currentColor" stroke-width="2" stroke-linecap="round" stroke-linejoin="round" class="bgfeather bgfeather-plus" id="plus" xmlns="http://www.w3.org/2000/svg"><line x1="12" y1="5" x2="12" y2="19"/><line x1="5" y1="12" x2="19" y2="12"/></symbol><symbol viewBox="0 0 24 24" fill="none" stroke="currentColor" stroke-width="2" stroke-linecap="round" stroke-linejoin="round" class="bhfeather bhfeather-send" id="send" xmlns="http://www.w3.org/2000/svg"><line x1="22" y1="2" x2="11" y2="13"/><polygon points="22 2 15 22 11 13 2 9 22 2"/></symbol><symbol viewBox="0 0 24 24" fill="none" stroke="currentColor" stroke-width="2" stroke-linecap="round" stroke-linejoin="round" class="bifeather bifeather-server" id="server" xmlns="http://www.w3.org/2000/svg"><rect x="2" y="2" width="20" height="8" rx="2" ry="2"/><rect x="2" y="14" width="20" height="8" rx="2" ry="2"/><line x1="6" y1="6" x2="6.01" y2="6"/><line x1="6" y1="18" x2="6.01" y2="18"/></symbol><symbol viewBox="0 0 24 24" fill="none" stroke="currentColor" stroke-width="2" stroke-linecap="round" stroke-linejoin="round" class="bjfeather bjfeather-settings" id="settings" xmlns="http://www.w3.org/2000/svg"><circle cx="12" cy="12" r="3"/><path d="M19.4 15a1.65 1.65 0 00.33 1.82l.06.06a2 2 0 010 2.83 2 2 0 01-2.83 0l-.06-.06a1.65 1.65 0 00-1.82-.33 1.65 1.65 0 00-1 1.51V21a2 2 0 01-2 2 2 2 0 01-2-2v-.09A1.65 1.65 0 009 19.4a1.65 1.65 0 00-1.82.33l-.06.06a2 2 0 01-2.83 0 2 2 0 010-2.83l.06-.06a1.65 1.65 0 00.33-1.82 1.65 1.65 0 00-1.51-1H3a2 2 0 01-2-2 2 2 0 012-2h.09A1.65 1.65 0 004.6 9a1.65 1.65 0 00-.33-1.82l-.06-.06a2 2 0 010-2.83 2 2 0 012.83 0l.06.06a1.65 1.65 0 001.82.33H9a1.65 1.65 0 001-1.51V3a2 2 0 012-2 2 2 0 012 2v.09a1.65 1.65 0 001 1.51 1.65 1.65 0 001.82-.33l.06-.06a2 2 0 012.83 0 2 2 0 010 2.83l-.06.06a1.65 1.65 0 00-.33 1.82V9a1.65 1.65 0 001.51 1H21a2 2 0 012 2 2 2 0 01-2 2h-.09a1.65 1.65 0 00-1.51 1z"/></symbol><symbol viewBox="0 0 24 24" fill="none" stroke="currentColor" stroke-width="2" stroke-linecap="round" stroke-linejoin="round" class="bkfeather bkfeather-shield" id="shield" xmlns="http://www.w3.org/2000/svg"><path d="M12 22s8-4 8-10V5l-8-3-8 3v7c0 6 8 10 8 10z"/></symbol><symbol viewBox="0 0 24 24" fill="none" stroke="currentColor" stroke-width="2" stroke-linecap="round" stroke-linejoin="round" class="blfeather blfeather-smile" id="smile" xmlns="http://www.w3.org/2000/svg"><circle cx="12" cy="12" r="10"/><path d="M8 14s1.5 2 4 2 4-2 4-2"/><line x1="9" y1="9" x2="9.01" y2="9"/><line x1="15" y1="9" x2="15.01" y2="9"/></symbol><symbol viewBox="0 0 24 24" fill="none" stroke="currentColor" stroke-width="2" stroke-linecap="round" stroke-linejoin="round" class="bmfeather bmfeather-tag" id="tag" xmlns="http://www.w3.org/2000/svg"><path d="M20.59 13.41l-7.17 7.17a2 2 0 01-2.83 0L2 12V2h10l8.59 8.59a2 2 0 010 2.82z"/><line x1="7" y1="7" x2="7.01" y2="7"/></symbol><symbol viewBox="0 0 18 20" id="tag-verified" xmlns="http://www.w3.org/2000/svg"><path d="M8 .27a2 2 0 012 0l7 4A2 2 0 0118 6v8a2 2 0 01-1 1.73l-7 4a2 2 0 01-2 0l-7-4A2 2 0 010 14V6a2 2 0 011-1.73zm5.707 7.023a1 1 0 00-1.414 0l-4.627 4.626-1.959-1.96-.094-.083a1 1 0 00-1.32 1.498L6.96 14.04l.094.084a1 1 0 001.32-.084l5.333-5.333.083-.094a1 1 0 00-.083-1.32z" fill="currentColor" fill-rule="evenodd"/></symbol><symbol viewBox="0 0 24 24" fill="none" stroke="currentColor" stroke-width="2" stroke-linecap="round" stroke-linejoin="round" class="bofeather bofeather-thumbs-down" id="thumbs-down" xmlns="http://www.w3.org/2000/svg"><path d="M10 15v4a3 3 0 003 3l4-9V2H5.72a2 2 0 00-2 1.7l-1.38 9a2 2 0 002 2.3zm7-13h2.67A2.31 2.31 0 0122 4v7a2.31 2.31 0 01-2.33 2H17"/></symbol><symbol viewBox="0 0 24 24" fill="none" stroke="currentColor" stroke-width="2" stroke-linecap="round" stroke-linejoin="round" class="bpfeather bpfeather-thumbs-up" id="thumbs-up" xmlns="http://www.w3.org/2000/svg"><path d="M14 9V5a3 3 0 00-3-3l-4 9v11h11.28a2 2 0 002-1.7l1.38-9a2 2 0 00-2-2.3zM7 22H4a2 2 0 01-2-2v-7a2 2 0 012-2h3"/></symbol><symbol viewBox="0 0 24 24" fill="none" stroke="currentColor" stroke-width="2" stroke-linecap="round" stroke-linejoin="round" class="bqfeather bqfeather-trash" id="trash" xmlns="http://www.w3.org/2000/svg"><polyline points="3 6 5 6 21 6"/><path d="M19 6v14a2 2 0 01-2 2H7a2 2 0 01-2-2V6m3 0V4a2 2 0 012-2h4a2 2 0 012 2v2"/></symbol><symbol viewBox="0 0 24 24" fill="none" stroke="currentColor" stroke-width="2" stroke-linecap="round" stroke-linejoin="round" class="brfeather brfeather-unlock" id="unlock" xmlns="http://www.w3.org/2000/svg"><rect x="3" y="11" width="18" height="11" rx="2" ry="2"/><path d="M7 11V7a5 5 0 019.9-1"/></symbol><symbol viewBox="0 0 24 24" fill="none" stroke="currentColor" stroke-width="2" stroke-linecap="round" stroke-linejoin="round" class="bsfeather bsfeather-user-x" id="user-x" xmlns="http://www.w3.org/2000/svg"><path d="M16 21v-2a4 4 0 00-4-4H5a4 4 0 00-4 4v2"/><circle cx="8.5" cy="7" r="4"/><line x1="18" y1="8" x2="23" y2="13"/><line x1="23" y1="8" x2="18" y2="13"/></symbol><symbol viewBox="0 0 24 24" fill="none" stroke="currentColor" stroke-width="2" stroke-linecap="round" stroke-linejoin="round" class="btfeather btfeather-users" id="users" xmlns="http://www.w3.org/2000/svg"><path d="M17 21v-2a4 4 0 00-4-4H5a4 4 0 00-4 4v2"/><circle cx="9" cy="7" r="4"/><path d="M23 21v-2a4 4 0 00-3-3.87"/><path d="M16 3.13a4 4 0 010 7.75"/></symbol><symbol viewBox="0 0 24 24" fill="none" stroke="currentColor" stroke-width="2" stroke-linecap="round" stroke-linejoin="round" class="bufeather bufeather-x" id="x" xmlns="http://www.w3.org/2000/svg"><line x1="18" y1="6" x2="6" y2="18"/><line x1="6" y1="6" x2="18" y2="18"/></symbol><symbol viewBox="0 0 24 24" fill="none" stroke="currentColor" stroke-width="2" stroke-linecap="round" stroke-linejoin="round" class="bvfeather bvfeather-x-circle" id="x-circle" xmlns="http://www.w3.org/2000/svg"><circle cx="12" cy="12" r="10"/><line x1="15" y1="9" x2="9" y2="15"/><line x1="9" y1="9" x2="15" y2="15"/></symbol><symbol viewBox="0 0 24 24" fill="none" stroke="currentColor" stroke-width="2" stroke-linecap="round" stroke-linejoin="round" class="bwfeather bwfeather-x-octagon" id="x-octagon" xmlns="http://www.w3.org/2000/svg"><polygon points="7.86 2 16.14 2 22 7.86 22 16.14 16.14 22 7.86 22 2 16.14 2 7.86 7.86 2"/><line x1="15" y1="9" x2="9" y2="15"/><line x1="9" y1="9" x2="15" y2="15"/></symbol></svg>