<svg width="24" height="24" viewBox="0 0 24 24" xmlns="http://www.w3.org/2000/svg"><g fill="none" fill-rule="evenodd" stroke="currentColor" stroke-linecap="round" stroke-linejoin="round" stroke-width="2"><g transform="translate(1 1)"><path d="M11 16a5 5 0 100-10 5 5 0 000 10z"/><line x1="11" x2="11" y2="2"/><line x1="3.22" y1="3.22" x2="4.64" y2="4.64"/><line y1="11" x2="2" y2="11"/><line x1="20" y1="11" x2="22" y2="11"/><line x1="17.36" y1="4.64" x2="18.78" y2="3.22"/></g><path d="M15 17l-.734 4.687A1.44 1.44 0 0112.828 23h-1.676a1.44 1.44 0 01-1.438-1.313L9 17c1.324.29 2.32.436 2.99.436.67 0 1.673-.145 3.01-.436z"/><line x1="14" y1="22" x2="10" y2="22"/></g></svg>