<?xml version="1.0" encoding="utf-8"?>
<!-- Generator: Adobe Illustrator 24.1.0, SVG Export Plug-In . SVG Version: 6.00 Build 0)  -->
<svg version="1.1" id="Layer_1" xmlns="http://www.w3.org/2000/svg" x="0px" y="0px"
     viewBox="0 0 304 326" style="enable-background:new 0 0 304 326;" xml:space="preserve">
<style type="text/css">
	.st0{fill:#13171A;}
	.st1{fill:#2E3D4C;}
	.st2{fill:#18467E;}
	.st3{fill:#2E6299;}
	.st4{fill:#293033;}
	.st5{fill:#66747F;}
	.st6{fill:#7B8D98;}
	.st7{fill:#485967;}
	.st8{fill:#D6DFE5;}
	.st9{fill:#E4E4E4;}
	.st10{fill:#B2B2B2;}
	.st11{fill:#14161A;}
	.st12{fill:#2D3641;}
	.st13{fill:#9B1C26;}
	.st14{fill:#650816;}
	.st15{fill:#B2364C;}
	.st16{fill:#A2B5CB;}
	.st17{fill:#FFFFFF;}
	.st18{fill:#D1DAE5;}
	.st19{fill:#7C97B2;}
	.st20{fill:#B7C0CB;}
	.st21{fill:#46515B;}
	.st22{fill:#3F444D;}
	.st23{fill:#AF5A38;}
	.st24{fill:#7F402A;}
</style>
<g id="clipboard">
	<g id="clipboard_7_">
		<g id="sword_13_">
			<g>
				<path class="st0" d="M78.34,271.73c-2.07-1.31-2.16-4.3-0.16-5.72c27.77-19.77,56.57-42.3,85.68-67.01
					c28.43-24.13,54.75-48.32,78.35-71.97c1.21-1.21,3.03-1.55,4.59-0.86l5.89,2.6c1.77,0.78,2.22,3.09,0.86,4.46
					c-24.48,24.71-51.93,50.01-81.65,75.23c-28.34,24.06-56.4,46.07-83.54,65.53c-1.83,1.31-4.26,1.37-6.16,0.17L78.34,271.73z"/>
				<path class="st0" d="M78.34,271.73c-2.07-1.31-2.16-4.3-0.16-5.72c27.77-19.77,56.57-42.3,85.68-67.01
					c28.43-24.13,54.75-48.32,78.35-71.97c1.21-1.21,3.03-1.55,4.59-0.86l5.89,2.6c1.77,0.78,2.22,3.09,0.86,4.46
					c-24.48,24.71-51.93,50.01-81.65,75.23c-28.34,24.06-56.4,46.07-83.54,65.53c-1.83,1.31-4.26,1.37-6.16,0.17L78.34,271.73z"/>
				<path class="st1" d="M250.15,127.66l-3.35-1.48c-1.56-0.69-3.38-0.35-4.59,0.86c-23.59,23.65-49.92,47.84-78.35,71.97
					c-29.11,24.71-57.91,47.23-85.68,67.01c-2,1.42-1.92,4.41,0.16,5.72l1.12,0.71c0.34-0.15,0.66-0.33,0.97-0.55
					c28.33-20.31,57.62-43.29,87.21-68.41C197.57,178.07,225.28,152.6,250.15,127.66z"/>
				<g>
					<path class="st2" d="M212.24,155.99l8.04,9.47c11.59-10.81,22.72-21.57,33.27-32.21c1.36-1.37,0.91-3.68-0.86-4.46l-5.89-2.6
						c-1.56-0.69-3.38-0.35-4.59,0.86C232.66,136.61,222.64,146.28,212.24,155.99z"/>
					<path class="st3" d="M242.11,127.13c-2.25,2.25-4.52,4.51-6.82,6.78c-0.88,0.87-1.78,1.74-2.67,2.61
						c-1.44,1.41-2.88,2.82-4.35,4.23c-1.16,1.12-2.33,2.24-3.5,3.37c-1.2,1.15-2.39,2.3-3.6,3.45c-1.33,1.27-2.68,2.54-4.03,3.81
						c-0.7,0.66-1.39,1.32-2.09,1.98c-1.34,1.26,3.41,4.92,5.2,3.25c10.36-9.7,20.35-19.36,29.9-28.94l-3.35-1.48
						c-1.56-0.69-3.38-0.35-4.59,0.86C242.18,127.07,242.14,127.1,242.11,127.13z"/>
					<g>
						<g>
							<path class="st0" d="M239.18,138.63c1.06,2.9,1.37,5.37,1.38,7.23c-1.74-0.98-4.23-1.95-7.14-1.75
								c1.08,2.95,1.4,5.43,1.44,7.28c-1.74-1-4.29-2.02-7.28-1.82c1.13,3.11,1.6,5.54,1.77,7.27c-1.74-1.03-4.33-2.1-7.37-1.89
								c1.11,3.03,1.55,5.52,1.7,7.35c7.8-7.33,15.36-14.63,22.69-21.89C244.62,139.42,242.12,138.43,239.18,138.63z"/>
							<path class="st0" d="M244.89,133.24c1.08,2.98,1.46,5.35,1.55,7.09c1.83-1.81,3.64-3.62,5.44-5.42
								C250.15,133.96,247.71,133.05,244.89,133.24z"/>
						</g>
						<path class="st4" d="M219.98,148.69c-1.75,1.66-3.48,3.32-5.25,4.98c1.86-0.03,4.36,0.22,7.24,1.28
							C222.26,152.23,221.08,150.08,219.98,148.69z"/>
						<path class="st4" d="M243.09,126.38c-0.31,0.18-0.61,0.4-0.88,0.66c-1.64,1.64-3.32,3.29-4.98,4.93
							c1.89-0.08,4.54,0.13,7.66,1.27C245.19,130.37,244.07,127.92,243.09,126.38z"/>
						<path class="st4" d="M231.98,137.14c2-0.01,4.47,0.32,7.19,1.49c0.11-2.64-0.96-4.93-2.05-6.56
							C235.42,133.76,233.72,135.45,231.98,137.14z"/>
						<path class="st4" d="M225.71,143.22c-1.76,1.69-3.54,3.39-5.32,5.08c1.85-0.03,4.33,0.22,7.18,1.27
							C227.86,146.86,226.75,144.66,225.71,143.22z"/>
						<path class="st4" d="M231.7,137.42c-1.85,1.8-3.71,3.61-5.59,5.42c1.87-0.04,4.38,0.2,7.31,1.28
							C233.71,141.33,232.67,138.96,231.7,137.42z"/>
					</g>
					<path class="st5" d="M252.69,128.78l-5.89-2.6c-1.56-0.69-3.38-0.35-4.59,0.86c-0.77,0.77-1.57,1.55-2.35,2.33
						c3.83,2.03,7.93,3.94,11.98,5.58c0.56-0.57,1.14-1.13,1.7-1.7C254.91,131.87,254.46,129.56,252.69,128.78z"/>
					<path class="st6" d="M239.87,129.36c3.18,1.68,6.54,3.29,9.91,4.73c0.57-0.57,1.15-1.14,1.72-1.71
						c1.36-1.37,0.91-3.68-0.86-4.46l-4.26-1.88c-1.46-0.46-3.07-0.09-4.17,1.01C241.44,127.81,240.64,128.59,239.87,129.36z"/>
				</g>
				<g>
					<path class="st1" d="M163.86,199.01"/>
				</g>
				<g>
					<g>
						<path class="st5" d="M227.27,165.86l-16.89-16.12c-0.85-0.81-0.88-2.16-0.07-3l0.88-0.92c0.81-0.85,2.16-0.88,3-0.07
							l16.89,16.12c0.85,0.81,0.88,2.16,0.07,3l-0.88,0.92C229.47,166.64,228.12,166.67,227.27,165.86z"/>
					</g>
					<g>
						<path class="st6" d="M219.68,158.61l-5.71-5.45c-0.82-0.78-0.85-2.08-0.07-2.9l0.98-1.03c0.78-0.82,2.08-0.85,2.9-0.07
							l5.71,5.45c0.82,0.78,0.85,2.08,0.07,2.9l-0.98,1.03C221.8,159.37,220.5,159.4,219.68,158.61z"/>
					</g>
					<g>
						<path class="st1" d="M221.8,166.37l-11.67-11.14c-0.64-0.61-0.66-1.62-0.05-2.25l0.66-0.69c0.61-0.64,1.62-0.66,2.25-0.05
							l11.67,11.14c0.64,0.61,0.66,1.62,0.05,2.25l-0.66,0.69C223.45,166.95,222.44,166.97,221.8,166.37z"/>
					</g>
					<g>
						<path class="st7" d="M216.4,161.2l-4.65-4.44c-0.58-0.55-0.6-1.46-0.05-2.04l0.87-0.91c0.55-0.58,1.46-0.6,2.04-0.05
							l4.65,4.44c0.58,0.55,0.6,1.46,0.05,2.04l-0.87,0.91C217.88,161.73,216.97,161.75,216.4,161.2z"/>
					</g>
				</g>
			</g>
		</g>
		<ellipse class="st8" cx="152" cy="311" rx="87" ry="13"/>
		<g id="legs_13_">
			<path class="st9" d="M160.85,302.07c-0.9,11.74,33.58-2.21,33.58-29.01c0-27.1-4.64-36.66-17.34-36.66
				c-8.13,0-21.96,10.84-19.56,19.34c2.39,8.48,3.78,16.66,3.78,22.05C161.31,282.1,161.14,298.01,160.85,302.07z"/>
			<path class="st9" d="M142.69,277.79c0-5.39,1.39-13.57,3.78-22.05c2.4-8.5-11.43-19.34-19.56-19.34
				c-12.7,0-17.34,9.56-17.34,36.66c0,26.8,34.49,40.75,33.58,29.01C142.86,298.01,142.69,282.1,142.69,277.79z"/>
			<g>
				<path class="st10" d="M175.5,291.95c-4.73-2.06-9.27-4.72-13-8.24c-0.42-0.39-0.82-0.79-1.22-1.2
					c-0.01,1.05-0.02,2.19-0.04,3.37c1.93,1.69,4.02,3.17,6.21,4.46c2.33,1.38,4.77,2.56,7.3,3.52c3.1,1.16,6.38,2.04,9.7,2.35
					c0.47-0.48,0.93-0.97,1.38-1.48c-0.99-0.1-1.98-0.25-2.96-0.45C180.36,293.75,177.88,292.97,175.5,291.95z"/>
				<path class="st10" d="M192.33,282.01c-4.35,2.23-9.39,2.73-14.24,2.48c-4.86-0.32-9.74-1.41-14.07-3.55
					c-0.94-0.47-1.85-1-2.72-1.57c0,0.83-0.01,1.8-0.02,2.9c0.56,0.31,1.13,0.6,1.7,0.87c4.75,2.19,9.89,3.24,15.03,3.35
					c5.02,0.09,10.21-0.7,14.67-3.25c0.2-0.57,0.38-1.15,0.55-1.74C192.93,281.66,192.64,281.85,192.33,282.01z"/>
				<path class="st10" d="M141.01,283.13c0.58-0.27,1.14-0.57,1.71-0.89c-0.01-1.08-0.02-2.05-0.02-2.87
					c-0.87,0.57-1.78,1.1-2.72,1.57c-4.33,2.14-9.2,3.23-14.07,3.55c-4.85,0.26-9.89-0.25-14.24-2.48c-0.31-0.16-0.6-0.34-0.9-0.52
					c0.17,0.59,0.35,1.16,0.55,1.73c4.46,2.55,9.65,3.35,14.67,3.26C131.12,286.37,136.26,285.32,141.01,283.13z"/>
				<path class="st10" d="M141.49,283.71c-3.73,3.52-8.27,6.19-13,8.24c-2.38,1.02-4.85,1.8-7.37,2.32
					c-0.98,0.2-1.97,0.35-2.97,0.45c0.45,0.51,0.91,1.01,1.39,1.49c3.33-0.31,6.6-1.19,9.7-2.35c2.53-0.95,4.97-2.14,7.3-3.52
					c2.19-1.29,4.27-2.77,6.21-4.46c-0.01-1.2-0.03-2.35-0.04-3.42C142.32,282.89,141.92,283.31,141.49,283.71z"/>
			</g>
			<path class="st11" d="M96,303.47c0-6.62,4.2-14.42,17.49-14.42s30.69,7.8,30.69,14.42c0,6.62,0,9.53-24.08,9.53
				S96,308.8,96,303.47z"/>
			<path class="st11" d="M183.9,313c-24.08,0-24.08-2.91-24.08-9.53s17.39-14.42,30.69-14.42s17.49,7.8,17.49,14.42
				C208,308.8,207.99,313,183.9,313z"/>
			<path class="st11" d="M200.56,248.64c-2.25-12.62-14.53-33.47-23.29-31.89c-5.35,0.98-17.3-2.08-25.27-1.73
				c-7.98-0.35-19.92,2.71-25.27,1.73c-8.75-1.59-21.03,19.26-23.29,31.89c-2.25,12.62-4.13,28.66,13.57,32.72
				c19.4,4.44,29.52-4.8,34.99-17.4c5.47,12.61,15.59,21.84,34.99,17.4C204.69,277.31,202.81,261.27,200.56,248.64z"/>
			<path d="M102.37,255.75c5.12,4.24,18.27,11.62,47.78,12c0.67-1.22,1.29-2.49,1.86-3.79c0.57,1.3,1.19,2.57,1.86,3.79
				c29.5-0.37,42.65-7.76,47.78-12c-0.27-2.42-0.66-4.82-1.07-7.11c-2.25-12.62-14.53-33.47-23.29-31.89
				c-5.35,0.98-17.3-2.08-25.27-1.73c-7.98-0.35-19.92,2.71-25.27,1.73c-8.75-1.59-21.03,19.26-23.29,31.89
				C103.03,250.93,102.64,253.33,102.37,255.75z"/>
		</g>
		<g id="body_13_">
			<g>
				<g>
					<path class="st11" d="M226.53,191.84c-2.89-12.76-10.14-25.48-22.46-31.37l-13.68,28.93l0,0c4.75,4.28,5.83,12.65,3.71,18.67
						c0.74,0.45,2.18,1.45,2.6,2.23l10.33,26.99C225.89,230.89,230.79,209.18,226.53,191.84z"/>
					<path class="st11" d="M99.93,160.18c-27.65,13.62-35,64.29-2.95,76.82l10.35-27.06c0.45-0.61,1.92-1.75,2.53-2.22l-0.81,0.64
						c0.2-0.14,0.65-0.46,0.85-0.58c-2.13-5.89-1.02-14.51,3.71-18.67L99.93,160.18z"/>
				</g>
				<path d="M85.56,172.71c-0.82,1.18-1.58,2.39-2.28,3.62c5.5,6.36,19.61,20.54,25.8,27.21c0.03-1.55,0.23-3.28,0.61-4.98
					c0.31-1.39-0.26-2.75,0.23-3.97c0.74-1.84,1.66-3.36,2.42-4.28c0.38-0.46,0.71-0.78,0.93-0.97c0.11-0.09,0.2-0.15,0.26-0.19
					l0.08-0.05l-9.07-19.17l-15.49-1.6C87.77,169.74,86.61,171.21,85.56,172.71z"/>
				<path d="M216.45,170.36c-0.48-0.59-0.99-1.16-1.51-1.73l-15.48,1.6l-9.07,19.17l0,0l0.06,0.03c0.16,0.09,0.69,0.49,1.34,1.33
					c0.48,0.62,1.03,1.46,1.54,2.46c0.77,1.51,0.46,3.38,0.91,5.32c0.43,1.8,0.65,3.64,0.68,5.29c6.19-6.67,20.29-20.85,25.8-27.21
					C219.49,174.46,218.08,172.37,216.45,170.36z"/>
			</g>
			<path class="st11" d="M219.22,173.5c2.54-2.78-4.24-13.94-8.72-16.69L186.33,142H152h-34.33L93.5,156.81
				c-4.48,2.75-11.26,13.91-8.72,16.69l27.45,30.4h0.01c-0.16,9.75-0.21,21.3,0.34,24.98c-5.76,3.19-13.68,19.82-10.55,21.98
				c0,0,9.76,13.04,49.99,13.14c40.23-0.1,49.99-13.14,49.99-13.14c3.12-2.16-4.8-18.79-10.55-21.98
				c0.54-3.68,0.49-15.23,0.34-24.98h0.01L219.22,173.5z"/>
		</g>
		<polygon class="st12" points="179.56,150.02 151.54,179.2 124.67,150.15 111.32,162.49 138.92,192.34 116.63,215.55 
			129.75,228.14 192.68,162.62 		"/>
		<g id="belt_13_">
			<path d="M191.44,228.43c0.26-1.73,0.38-5.22,0.42-9.44c-12.47,1.05-25.88,1.63-39.87,1.63c-13.99,0-27.39-0.58-39.85-1.62
				c0.04,4.22,0.17,7.7,0.42,9.44c-1.78,0.98-3.76,3.23-5.57,5.93c9.74,0.94,20.09,1.59,30.92,1.89c-2.91,6.98-4.14,14.7-3.52,22.63
				l0.29,3.7c3.58,0.42,7.53,0.71,11.88,0.86l-0.43-5.46c-0.58-7.44,0.9-14.61,4.28-20.71c0.17-0.3,0.33-0.56,0.49-0.83
				c0.36,0,0.72,0.01,1.09,0.01c0.36,0,0.72-0.01,1.09-0.01c0.16,0.26,0.32,0.52,0.49,0.83c3.41,6.15,4.83,13.35,4.09,20.83
				l-0.53,5.35c4.35-0.14,8.32-0.42,11.91-0.83l0.33-3.38c0.79-8.05-0.37-15.89-3.31-22.98c10.83-0.3,21.19-0.95,30.93-1.89
				C195.2,231.65,193.21,229.41,191.44,228.43z"/>
			<path class="st13" d="M192.7,231.88c0.37-2.66,0.45-9,0.42-15.88c-12.82,1.11-26.66,1.73-41.12,1.73
				c-14.46,0-28.3-0.61-41.12-1.73c-0.03,6.87,0.05,13.21,0.42,15.88c12.7,1.09,26.4,1.69,40.7,1.69S179.99,232.97,192.7,231.88z"/>
			<g>
				<path class="st13" d="M138.28,271.99c-1.44,0.11-2.7-0.96-2.81-2.38L134.4,256c-0.76-9.71,1.21-19.13,5.7-27.22
					c2.81-5.06,5.91-8.29,9.47-9.88l4.84,10.63c-0.29,0.13-1.83,0.96-3.99,4.87c-3.39,6.1-4.87,13.27-4.28,20.71l1.07,13.61
					c0.11,1.43-0.97,2.67-2.41,2.78L138.28,271.99z"/>
				<path class="st13" d="M165.71,266.88l-6.51-0.63c-1.44-0.14-2.49-1.41-2.35-2.83l0.81-8.2c0.74-7.48-0.68-14.68-4.09-20.83
					c-2.17-3.9-3.71-4.74-3.99-4.87l4.84-10.63c3.57,1.59,6.67,4.83,9.47,9.88c4.56,8.22,6.46,17.75,5.49,27.57l-0.81,8.2
					C168.43,265.97,167.15,267.01,165.71,266.88z"/>
				<path class="st14" d="M154.41,218.9l-0.68,1.49c2.01,0.16,3.35,0.61,3.8,0.93c0.06,0.82-0.16,3.09-3.02,7.9
					c-0.67,1.12-1.58,1.77-2.51,1.77l0,0c-0.93,0-1.85-0.64-2.53-1.76c-2.95-4.91-3.09-7.1-3.02-7.8c0.45-0.33,1.79-0.8,3.81-1
					l-0.69-1.52c-2.78,1.24-5.28,3.5-7.58,6.83c0.62,1.81,1.6,3.85,2.98,6.14c1.18,1.97,2.85,3.32,4.74,3.92
					c0.23-0.47,0.45-0.94,0.71-1.4c0.57-1.03,1.1-1.84,1.57-2.49c0.47,0.65,1,1.45,1.57,2.49c0.25,0.46,0.48,0.94,0.71,1.41
					c1.9-0.61,3.57-1.97,4.75-3.96c1.36-2.29,2.33-4.32,2.95-6.14C159.68,222.39,157.19,220.14,154.41,218.9z"/>
				<path class="st13" d="M140.98,220.58c-0.88,2.53,1.63,6.51,4.48,9.96c3.33,4.04,9.78,4.04,13.08-0.02
					c2.77-3.4,5.23-7.33,4.52-9.94C162.01,216.69,142.27,216.86,140.98,220.58z"/>
			</g>
			<g>
				<path class="st15" d="M151.99,219.03c-6.37,0-10.04,1.43-9.78,0.68c0.28-0.71,3.59-1.98,9.78-1.98c6.38,0,9.64,1.34,9.81,1.89
					C162.07,220.62,158.38,219.03,151.99,219.03z"/>
			</g>
		</g>
		<g id="head_13_">
			<g>
				<g>
					<path class="st16" d="M150.23,74.43c-14.46,48.7,48.43,74.01,71.68,28.81c26.55-51.65,18.14-92.58-1.09-100.23
						C206.4-2.72,164.69,25.73,150.23,74.43z"/>
					<path class="st17" d="M177.22,110.89c9.46,3.82,23.52,2.42,32.02-14.11c16.86-32.8,17.53-58.78,12.52-72.17
						c-0.25-0.67-0.52-1.31-0.8-1.93c-1.95-4.25-7-6.1-11.22-4.04c-4.45,2.16-10.54,6.13-17.34,12.66
						c-13.11,12.59-23.24,29.33-28.51,47.15C158.59,96.27,167.76,107.07,177.22,110.89z"/>
					<path class="st18" d="M168.86,101.98c7.34-22.83,19.6-44.8,34.53-61.87c7.01-8.01,13.18-13.32,17.91-16.61
						c-0.12-0.27-0.22-0.57-0.34-0.82c-1.95-4.25-7-6.1-11.22-4.04c-4.45,2.16-10.54,6.13-17.34,12.66
						c-13.11,12.59-23.24,29.33-28.51,47.15c-3.47,11.69-0.72,20.35,4.24,26.02C168.35,103.65,168.59,102.82,168.86,101.98z"/>
				</g>
				<g>
					<path class="st16" d="M153.77,74.43c14.46,48.7-48.43,74.01-71.68,28.81C55.55,51.59,63.96,10.67,83.18,3.02
						C97.6-2.72,139.31,25.73,153.77,74.43z"/>
					<path class="st17" d="M126.78,110.89c-9.46,3.82-23.52,2.42-32.02-14.11C77.91,63.98,77.23,38,82.24,24.61
						c0.25-0.67,0.52-1.31,0.8-1.93c1.95-4.25,7-6.1,11.22-4.04c4.45,2.16,10.54,6.13,17.34,12.66
						c13.11,12.59,23.24,29.33,28.51,47.15C145.41,96.27,136.24,107.07,126.78,110.89z"/>
					<path class="st18" d="M135.14,101.98c-7.34-22.83-19.6-44.8-34.53-61.87C93.6,32.1,87.43,26.79,82.71,23.5
						c0.12-0.27,0.22-0.57,0.34-0.82c1.95-4.25,7-6.1,11.22-4.04c4.45,2.16,10.54,6.13,17.34,12.66
						c13.11,12.59,23.24,29.33,28.51,47.15c3.47,11.69,0.72,20.35-4.24,26.02C135.65,103.65,135.41,102.82,135.14,101.98z"/>
				</g>
			</g>
			<path id="base_13_" class="st17" d="M152.16,20.83L152.16,20.83c-0.05,0-0.27,0-0.32,0l0,0c-62.87,0.26-91.23,68.27-87.52,93.98
				c4.96,34.45,47.77,61.8,87.68,61.8s82.72-27.33,87.68-61.8C243.39,89.1,215.03,21.1,152.16,20.83z"/>
			<path id="base_shadows_13_" class="st18" d="M211.02,46.45c15.19,21.91,21.73,48.81,19.93,63.1
				c-4.47,35.68-43.02,65.27-78.95,65.27s-74.49-29.6-78.95-65.27c-1.79-14.29,4.74-41.2,19.93-63.11
				c-21.51,22.13-30.89,52.9-28.66,68.37c4.96,34.45,47.77,61.8,87.68,61.8c39.9,0,82.72-27.33,87.68-61.8
				C241.91,99.34,232.53,68.57,211.02,46.45z"/>
			<g>
				<path class="st16" d="M152.16,20.83c-0.05,0-0.27,0-0.32,0c-54.13,0.22-82.67,50.66-87.2,81.1c0.25,0.24,0.63,0.33,0.98,0.15
					c2.03-1.05,4.47-2.04,7.13-2.94c13.11-4.47,27-5.4,40.46-2.99c3.12,0.56,5.76-2.47,4.72-5.45c-0.19-0.54-0.37-1.09-0.54-1.65
					c-3.38-11.27-0.84-21.57,5.67-23s14.53,6.54,17.91,17.82c2.19,7.31,1.88,14.2-0.38,18.54c-0.46,0.88,0.22,1.93,1.17,1.75
					c6.72-1.3,13.63-1.31,20.36-0.02l0.12,0.02c0.95,0.18,1.63-0.87,1.16-1.75c-2.27-4.33-2.57-11.23-0.38-18.54
					c3.38-11.27,11.4-19.25,17.91-17.82c6.51,1.43,9.05,11.73,5.67,23c-0.17,0.56-0.35,1.11-0.54,1.65
					c-1.04,2.98,1.6,6.01,4.72,5.45c13.46-2.4,27.35-1.48,40.46,2.99c2.66,0.91,5.1,1.89,7.13,2.94c0.35,0.18,0.74,0.09,0.98-0.15
					C234.83,71.49,206.29,21.06,152.16,20.83z"/>
				<path class="st19" d="M216.34,52.38c9.26,16.29,14.17,33.97,14.82,46.72c0.03,0.01,0.05,0.02,0.08,0.03
					c2.66,0.91,5.1,1.89,7.13,2.94c0.36,0.19,0.73,0.07,0.98-0.18C237.19,87.39,229.58,68.36,216.34,52.38z"/>
				<path class="st19" d="M64.65,101.89c0.25,0.25,0.62,0.36,0.98,0.18c2.03-1.05,4.47-2.04,7.13-2.94
					c0.03-0.01,0.05-0.02,0.08-0.03c0.65-12.75,5.56-30.44,14.82-46.73C74.42,68.35,66.81,87.39,64.65,101.89z"/>
			</g>
			<g>
				<g>
					<path class="st20" d="M162.52,147.59c-2.55,1.73-6.38,2.72-10.5,2.72s-7.94-0.99-10.5-2.72c-0.59-0.4-1.39-0.25-1.8,0.34
						c-0.4,0.59-0.25,1.39,0.34,1.79c2.97,2.01,7.33,3.16,11.95,3.16s8.98-1.15,11.96-3.16c0.59-0.4,0.74-1.2,0.34-1.79
						S163.11,147.19,162.52,147.59z"/>
					<path class="st20" d="M183.32,135.8c-0.67-0.24-1.41,0.11-1.65,0.78c-0.94,2.64-3.56,3.44-3.96,3.56
						c-5.48,2.11-12.77-0.86-17.92-3.73c-2.02-1.12-4.18-1.78-6.43-1.97v-10c0-0.71-0.58-1.29-1.29-1.29s-1.29,0.58-1.29,1.29v10
						c-2.25,0.19-4.41,0.85-6.43,1.97c-5.15,2.86-12.43,5.84-18.03,3.69c-0.29-0.08-2.91-0.89-3.85-3.52
						c-0.24-0.67-0.97-1.02-1.65-0.78c-0.67,0.24-1.03,0.97-0.79,1.64c1.37,3.85,5.16,5.02,5.47,5.1c1.6,0.61,3.29,0.88,5.03,0.88
						c5.25,0,10.85-2.4,15.08-4.76c2.01-1.12,4.19-1.69,6.46-1.7c2.27,0.01,4.45,0.58,6.46,1.7c4.25,2.36,9.88,4.77,15.09,4.77
						c1.7,0,3.36-0.26,4.91-0.85c0.43-0.12,4.21-1.28,5.59-5.14C184.35,136.77,183.99,136.03,183.32,135.8z"/>
				</g>
				<path class="st11" d="M165.06,114.48c0,5.04-7.51,8.82-11.14,10.71c-1.19,0.62-2.62,0.62-3.82,0
					c-3.63-1.9-11.14-5.68-11.14-10.71c0-3.96,5.84-4.73,13.05-4.73S165.06,110.52,165.06,114.48z"/>
				<path class="st21" d="M152,112.06c-4.71,0-7.83,0.38-9.87,0.84c-1.44,0.32-1.3,1.94,0.17,2.14c2.97,0.39,6.98,0.84,9.7,0.84
					s6.74-0.45,9.7-0.84c1.47-0.2,1.6-1.82,0.17-2.14C159.83,112.44,156.71,112.06,152,112.06z"/>
			</g>
			<g id="eyes_13_">
				<g>
					<g>
						<path class="st17" d="M170.75,93.69c-0.07,1.38-0.81,2.52-0.47,3.43c0.43,1.13,2.35,1.41,3.01,1.94
							c0.04,0.03,0.08,0.06,0.12,0.09c0.22,0.17,0.44,0.33,0.7,0.48c0.07,0.04,0.12,0.09,0.18,0.12c0.29,0.18,0.58,0.34,0.9,0.51
							c0.07,0.03,0.13,0.06,0.2,0.09c0.26,0.14,0.53,0.26,0.81,0.37c0.08,0.03,0.15,0.06,0.23,0.09c0.33,0.14,0.65,0.26,1,0.38
							c0.07,0.02,0.13,0.05,0.2,0.06c0.29,0.1,0.59,0.19,0.88,0.28c0.08,0.02,0.16,0.05,0.24,0.07c0.35,0.1,0.68,0.18,1.03,0.27
							c0.07,0.02,0.12,0.03,0.19,0.04c0.3,0.07,0.59,0.14,0.89,0.2c0.08,0.02,0.16,0.04,0.24,0.05c0.34,0.07,0.66,0.13,0.98,0.17
							c0.05,0,0.09,0.02,0.15,0.02c0.28,0.04,0.57,0.08,0.84,0.12c0.08,0,0.15,0.02,0.23,0.03c0.3,0.04,0.59,0.07,0.87,0.1
							c0.04,0,0.08,0,0.12,0.01c0.24,0.03,0.47,0.05,0.7,0.06c0.07,0,0.14,0.01,0.19,0.02c0.24,0.03,0.47,0.04,0.68,0.05
							c0.03,0,0.05,0,0.08,0c0.19,0.01,0.37,0.02,0.53,0.03c0.04,0,0.08,0,0.12,0.01c0.16,0.01,0.31,0.02,0.42,0.02
							c0.01,0,0.01,0,0.01,0c0.12,0.01,0.2,0.01,0.27,0c0.03,0,0.03,0,0.04,0c0.04,0,0.08,0,0.08,0c9.46,0.49,17.35-3.77,17.63-8.95
							C206.22,71.85,171.87,72.51,170.75,93.69z"/>
						<path class="st11" d="M199.87,91.91c0.31-5.82-2.64-11.05-7.26-13.97c-9.56-1.83-21.22,3.55-21.86,15.75
							c-0.07,1.38-0.81,2.52-0.47,3.43c0.43,1.13,2.35,1.41,3.01,1.94c0.04,0.03,0.08,0.06,0.12,0.09c0.22,0.17,0.44,0.33,0.7,0.48
							c0.07,0.04,0.12,0.09,0.18,0.12c0.29,0.18,0.58,0.34,0.9,0.51c0.07,0.03,0.13,0.06,0.2,0.09c0.26,0.14,0.53,0.26,0.81,0.37
							c0.08,0.03,0.15,0.06,0.23,0.09c0.33,0.14,0.65,0.26,1,0.38c0.07,0.02,0.13,0.05,0.2,0.06c0.29,0.1,0.59,0.19,0.88,0.28
							c0.08,0.02,0.16,0.05,0.24,0.07c0.35,0.1,0.68,0.18,1.03,0.27c0.07,0.02,0.12,0.03,0.19,0.04c0.3,0.07,0.59,0.14,0.89,0.2
							c0.08,0.02,0.16,0.04,0.24,0.05c0.34,0.07,0.66,0.13,0.98,0.17c0.05,0,0.09,0.02,0.15,0.02c0.28,0.04,0.57,0.08,0.84,0.12
							c0.08,0,0.15,0.02,0.23,0.03c0.3,0.04,0.59,0.07,0.87,0.1c0.04,0,0.08,0,0.12,0.01c0.24,0.03,0.47,0.05,0.7,0.06
							c0.07,0,0.14,0.01,0.19,0.02c0.24,0.03,0.47,0.04,0.68,0.05c0.03,0,0.05,0,0.08,0c0.19,0.01,0.37,0.02,0.53,0.03
							c0.04,0,0.08,0,0.12,0.01c0.16,0.01,0.31,0.02,0.42,0.02c0.01,0,0.01,0,0.01,0c0.12,0.01,0.2,0.01,0.27,0
							c0.03,0,0.03,0,0.04,0c0.04,0,0.08,0,0.08,0c2.83,0.15,5.51-0.14,7.9-0.74C197.95,99.44,199.66,95.9,199.87,91.91z"/>
						<ellipse class="st17" cx="192.22" cy="86.96" rx="4.25" ry="4.23"/>
					</g>
					<g>
						<g>
							<path d="M207.52,81.37c-0.6,0-1.19-0.27-1.57-0.79c-2.92-3.95-7.39-6.68-12.59-7.69c-5.46-1.06-11.29-0.08-15.97,2.68
								c-0.92,0.54-2.11,0.24-2.66-0.68s-0.24-2.1,0.68-2.65c5.49-3.23,12.3-4.38,18.69-3.14c6.16,1.19,11.47,4.46,14.97,9.19
								c0.63,0.86,0.45,2.07-0.41,2.7C208.32,81.24,207.92,81.37,207.52,81.37z"/>
						</g>
					</g>
				</g>
				<g>
					<path class="st17" d="M133.28,93.7c0.07,1.38,0.81,2.52,0.47,3.43c-0.43,1.13-2.35,1.41-3.01,1.94
						c-0.04,0.03-0.08,0.06-0.12,0.09c-0.22,0.17-0.44,0.33-0.7,0.48c-0.07,0.04-0.12,0.09-0.18,0.12c-0.29,0.18-0.58,0.34-0.9,0.51
						c-0.07,0.03-0.13,0.06-0.2,0.09c-0.26,0.14-0.53,0.26-0.81,0.37c-0.08,0.03-0.15,0.06-0.23,0.09c-0.33,0.14-0.65,0.26-1,0.38
						c-0.07,0.02-0.13,0.05-0.2,0.06c-0.29,0.1-0.59,0.19-0.88,0.28c-0.08,0.02-0.16,0.05-0.24,0.07c-0.35,0.1-0.68,0.18-1.03,0.27
						c-0.07,0.02-0.12,0.03-0.19,0.04c-0.3,0.07-0.59,0.14-0.89,0.2c-0.08,0.02-0.16,0.04-0.24,0.05c-0.34,0.07-0.66,0.13-0.98,0.17
						c-0.05,0-0.09,0.02-0.15,0.02c-0.28,0.04-0.57,0.08-0.84,0.12c-0.08,0-0.15,0.02-0.23,0.03c-0.3,0.04-0.59,0.07-0.87,0.1
						c-0.04,0-0.08,0-0.12,0.01c-0.24,0.03-0.47,0.05-0.7,0.06c-0.07,0-0.14,0.01-0.19,0.02c-0.24,0.03-0.47,0.04-0.68,0.05
						c-0.03,0-0.05,0-0.08,0c-0.19,0.01-0.37,0.02-0.53,0.03c-0.04,0-0.08,0-0.12,0.01c-0.16,0.01-0.31,0.02-0.42,0.02
						c-0.01,0-0.01,0-0.01,0c-0.12,0.01-0.2,0.01-0.27,0c-0.03,0-0.03,0-0.04,0c-0.04,0-0.08,0-0.08,0
						c-9.46,0.49-17.35-3.77-17.63-8.95C97.81,71.86,132.16,72.52,133.28,93.7z"/>
					<g>
						<path class="st11" d="M130.73,99.07c0.67-0.54,2.58-0.81,3.01-1.94c0.35-0.91-0.39-2.05-0.47-3.43
							c-0.64-12.2-12.31-17.58-21.86-15.75c-4.62,2.91-7.57,8.15-7.26,13.97c0.21,3.99,1.92,7.54,4.55,10.16
							c2.39,0.6,5.07,0.89,7.9,0.74c0,0,0.04,0,0.08,0c0.01,0,0.01,0,0.04,0c0.07,0.01,0.15,0.01,0.27,0c0,0,0,0,0.01,0
							c0.11-0.01,0.26-0.01,0.42-0.02c0.04,0,0.08,0,0.12-0.01c0.16-0.01,0.34-0.02,0.53-0.03c0.03,0,0.05,0,0.08,0
							c0.2-0.01,0.43-0.02,0.68-0.05c0.05-0.02,0.12-0.02,0.19-0.02c0.23-0.01,0.46-0.04,0.7-0.06c0.04,0,0.08,0,0.12-0.01
							c0.27-0.03,0.57-0.06,0.87-0.1c0.08,0,0.15-0.02,0.23-0.03c0.27-0.04,0.55-0.08,0.84-0.12c0.05,0,0.09-0.02,0.15-0.02
							c0.32-0.04,0.65-0.1,0.98-0.17c0.08-0.02,0.16-0.04,0.24-0.05c0.3-0.06,0.59-0.13,0.89-0.2c0.07,0,0.12-0.02,0.19-0.04
							c0.35-0.09,0.68-0.17,1.03-0.27c0.08-0.02,0.16-0.05,0.24-0.07c0.3-0.08,0.59-0.18,0.88-0.28c0.07-0.02,0.13-0.05,0.2-0.06
							c0.35-0.11,0.67-0.24,1-0.38c0.08-0.03,0.15-0.06,0.23-0.09c0.28-0.11,0.55-0.23,0.81-0.37c0.07-0.03,0.13-0.06,0.2-0.09
							c0.32-0.17,0.61-0.33,0.9-0.51c0.07-0.03,0.12-0.07,0.18-0.12c0.25-0.15,0.47-0.31,0.7-0.48
							C130.65,99.13,130.69,99.1,130.73,99.07z"/>
						<ellipse class="st17" cx="113.17" cy="86.9" rx="4.25" ry="4.23"/>
					</g>
					<path d="M96.88,80.44c-0.4,0-0.8-0.12-1.15-0.38c-0.86-0.63-1.05-1.84-0.41-2.7c3.5-4.73,8.82-8,14.97-9.19
						c6.39-1.24,13.2-0.09,18.69,3.14c0.92,0.54,1.23,1.73,0.68,2.65c-0.54,0.92-1.74,1.22-2.66,0.68
						c-4.68-2.76-10.51-3.74-15.97-2.68c-5.2,1.01-9.67,3.74-12.59,7.69C98.07,80.17,97.48,80.44,96.88,80.44z"/>
				</g>
			</g>
		</g>
		<g id="mask_13_">
			<path d="M239.68,115.31c-0.01-1.28,0.26-2.64,0.3-4.08c-5.89,3.66-14.71,10.99-27.22,10.63c-4.21,0.04-8.86-0.8-13.99-3.04
				c-17.88-7.82-34.29-13.25-46.77-13.27l0,0c-12.48,0.01-28.91,5.45-46.79,13.27c-5.13,2.24-9.78,3.08-14,3.04
				c-12.48,0.36-21.29-6.94-27.18-10.61c0.04,1.44,0.31,2.79,0.3,4.07C64,150.97,130.24,182.54,152,182.29
				S239.98,150.97,239.68,115.31z"/>
			<path class="st11" d="M229.98,117.46c-4.74,2.52-10.43,4.59-17.22,4.39c-4.21,0.04-8.86-0.8-13.99-3.04
				c-17.88-7.82-34.29-13.25-46.77-13.27l0,0c-12.48,0.01-28.91,5.45-46.79,13.27c-5.13,2.24-9.78,3.08-14,3.04
				c-6.77,0.19-12.45-1.87-17.18-4.38c5.88,31.8,59.61,58.73,77.98,58.51C170.37,175.75,224.09,149.22,229.98,117.46z"/>
			<path class="st22" d="M152,111.46c-4.96,0-8.24,0.4-10.39,0.89c-1.51,0.33-1.37,2.05,0.18,2.25c3.13,0.41,7.35,0.89,10.21,0.89
				s7.09-0.48,10.21-0.89c1.55-0.21,1.68-1.92,0.18-2.25C160.24,111.86,156.96,111.46,152,111.46z"/>
		</g>
		<g id="clipboard_8_">
			<g>
				<g>
					<path class="st23" d="M185,264.5h-66c-1.1,0-2-0.9-2-2v-88c0-1.1,0.9-2,2-2h66c1.1,0,2,0.9,2,2v88
						C187,263.6,186.1,264.5,185,264.5z"/>
					<g>
						<rect x="120" y="176.5" class="st24" width="64" height="86"/>
						
							<rect x="120" y="176.5" transform="matrix(0.9994 -0.0349 0.0349 0.9994 -7.5679 5.4385)" class="st24" width="64" height="86"/>
					</g>
				</g>
				<g>
					
						<rect id="_x32__3_" x="120" y="175.5" transform="matrix(0.9994 -0.0349 0.0349 0.9994 -7.533 5.4379)" class="st18" width="64" height="86"/>
					<rect id="_x31__4_" x="120" y="175.5" class="st17" width="64" height="86"/>
				</g>
				<g>
					<g>
						<path class="st6" d="M152,166.5c-1.66,0-3,1.34-3,3s1.34,3,3,3s3-1.34,3-3S153.66,166.5,152,166.5z M152,170.5
							c-0.55,0-1-0.45-1-1s0.45-1,1-1s1,0.45,1,1S152.55,170.5,152,170.5z"/>
						<g>
							<path class="st5" d="M152,172.5c1.66,0,3-1.34,3-3c0-0.35-0.07-0.69-0.18-1H152c0.55,0,1,0.45,1,1s-0.45,1-1,1s-1-0.45-1-1
								s0.45-1,1-1h-2.82c-0.11,0.31-0.18,0.65-0.18,1C149,171.16,150.34,172.5,152,172.5z"/>
						</g>
					</g>
					<path class="st18" d="M166,180.5h-28c-0.55,0-1-0.45-1-1v-5c0-1.66,1.34-3,3-3h24c1.66,0,3,1.34,3,3v5
						C167,180.05,166.55,180.5,166,180.5z"/>
					<path class="st6" d="M166,178.5h-28c-0.55,0-1-0.45-1-1v-5c0-1.66,1.34-3,3-3h24c1.66,0,3,1.34,3,3v5
						C167,178.05,166.55,178.5,166,178.5z"/>
					<path class="st5" d="M164,171.5h-24c-1.66,0-3,1.34-3,3v3c0,0.55,0.45,1,1,1h28c0.55,0,1-0.45,1-1v-3
						C167,172.84,165.66,171.5,164,171.5z"/>
				</g>
			</g>
			<g>
				<g>
					<path class="st18" d="M176,192.5h-37c-0.55,0-1-0.45-1-1l0,0c0-0.55,0.45-1,1-1h37c0.55,0,1,0.45,1,1l0,0
						C177,192.05,176.55,192.5,176,192.5z"/>
					<path class="st18" d="M176,196.5h-37c-0.55,0-1-0.45-1-1l0,0c0-0.55,0.45-1,1-1h37c0.55,0,1,0.45,1,1l0,0
						C177,196.05,176.55,196.5,176,196.5z"/>
					<path class="st18" d="M164,200.5h-25c-0.55,0-1-0.45-1-1l0,0c0-0.55,0.45-1,1-1h25c0.55,0,1,0.45,1,1l0,0
						C165,200.05,164.55,200.5,164,200.5z"/>
				</g>
				<g>
					<path class="st18" d="M133,192.5c0.55,0,1,0.45,1,1v4c0,0.55-0.45,1-1,1h-4c-0.55,0-1-0.45-1-1v-4c0-0.55,0.45-1,1-1H133
						 M133,190.5h-4c-1.65,0-3,1.35-3,3v4c0,1.65,1.35,3,3,3h4c1.65,0,3-1.35,3-3v-4C136,191.85,134.65,190.5,133,190.5L133,190.5z"
						/>
				</g>
			</g>
			<g>
				<g>
					<path class="st18" d="M176,208.5h-37c-0.55,0-1-0.45-1-1l0,0c0-0.55,0.45-1,1-1h37c0.55,0,1,0.45,1,1l0,0
						C177,208.05,176.55,208.5,176,208.5z"/>
					<path class="st18" d="M176,212.5h-37c-0.55,0-1-0.45-1-1l0,0c0-0.55,0.45-1,1-1h37c0.55,0,1,0.45,1,1l0,0
						C177,212.05,176.55,212.5,176,212.5z"/>
					<path class="st18" d="M164,216.5h-25c-0.55,0-1-0.45-1-1l0,0c0-0.55,0.45-1,1-1h25c0.55,0,1,0.45,1,1l0,0
						C165,216.05,164.55,216.5,164,216.5z"/>
				</g>
				<g>
					<path class="st18" d="M133,208.5c0.55,0,1,0.45,1,1v4c0,0.55-0.45,1-1,1h-4c-0.55,0-1-0.45-1-1v-4c0-0.55,0.45-1,1-1H133
						 M133,206.5h-4c-1.65,0-3,1.35-3,3v4c0,1.65,1.35,3,3,3h4c1.65,0,3-1.35,3-3v-4C136,207.85,134.65,206.5,133,206.5L133,206.5z"
						/>
				</g>
			</g>
			<g>
				<g>
					<path class="st18" d="M176,224.5h-37c-0.55,0-1-0.45-1-1l0,0c0-0.55,0.45-1,1-1h37c0.55,0,1,0.45,1,1l0,0
						C177,224.05,176.55,224.5,176,224.5z"/>
					<path class="st18" d="M176,228.5h-37c-0.55,0-1-0.45-1-1l0,0c0-0.55,0.45-1,1-1h37c0.55,0,1,0.45,1,1l0,0
						C177,228.05,176.55,228.5,176,228.5z"/>
					<path class="st18" d="M164,232.5h-25c-0.55,0-1-0.45-1-1l0,0c0-0.55,0.45-1,1-1h25c0.55,0,1,0.45,1,1l0,0
						C165,232.05,164.55,232.5,164,232.5z"/>
				</g>
				<g>
					<path class="st18" d="M133,224.5c0.55,0,1,0.45,1,1v4c0,0.55-0.45,1-1,1h-4c-0.55,0-1-0.45-1-1v-4c0-0.55,0.45-1,1-1H133
						 M133,222.5h-4c-1.65,0-3,1.35-3,3v4c0,1.65,1.35,3,3,3h4c1.65,0,3-1.35,3-3v-4C136,223.85,134.65,222.5,133,222.5L133,222.5z"
						/>
				</g>
			</g>
		</g>
		<g id="hands_8_">
			<g>
				<g>
					<path class="st16" d="M186.96,201.21c8.74-1.12,15.04,1.29,15.04,1.29s-5.56,39.16-15.04,38.5V201.21z"/>
					<g>
						<path class="st16" d="M175.74,236.07c0.75,5.26,5.53,7.25,11.22,7.7v-0.03C181.24,243.23,176.49,241.2,175.74,236.07z"/>
						<path class="st16" d="M183.21,239.82c-1.6-1.96-2.61-4.43-2.7-7.15l-0.65-18.23c-0.18-5.04,2.77-9.45,7.1-11.38v-0.13
							c-3.11,0.45-4.3,0.29-5.89,0.12c-4.07-0.42-7.91,2.41-8.34,6.48c-0.02,0.22-0.04,0.45-0.04,0.68c-0.01,0.31,0,0.63,0.02,0.95
							c0.11,2.46,1.11,4.3,2.71,5.67c-1.32,1.65-2.08,3.86-1.98,6.26c0.12,2.86,1.47,4.88,3.56,6.3c-0.75,1.29-1.21,2.83-1.32,4.48
							c0.01-0.12,0.02-0.24,0.03-0.35C176.57,237.03,179.46,238.91,183.21,239.82z"/>
						<path class="st16" d="M175.74,236.07c-0.05-0.36-0.08-0.74-0.1-1.13C175.65,235.33,175.69,235.7,175.74,236.07z"/>
						<path class="st19" d="M175.74,236.07L175.74,236.07L175.74,236.07z"/>
						<path class="st19" d="M175.68,233.88c-0.03,0.34-0.05,0.69-0.04,1.04v0.01v-0.01C175.63,234.57,175.66,234.23,175.68,233.88z"
							/>
						<path class="st19" d="M186.96,243.74c0.86,0.08,1.73,0.12,2.62,0.13c-0.92-0.23-1.8-0.56-2.62-0.99V243.74z"/>
						<path class="st19" d="M183.21,239.82c-3.75-0.91-6.65-2.8-7.5-6.3c-0.01,0.12-0.02,0.24-0.03,0.35
							c-0.02,0.34-0.05,0.69-0.04,1.04v0.01c0.01,0.39,0.04,0.77,0.1,1.13v0.01c0.75,5.13,5.5,7.16,11.22,7.67v-0.86
							C185.51,242.13,184.24,241.08,183.21,239.82z"/>
						<path class="st11" d="M215.86,218.54c-0.19-10.53-8.92-16.9-19.45-16.64l-4.84,0.12c-1.64,0.04-3.2,0.41-4.61,1.04
							c-4.32,1.94-7.27,6.35-7.1,11.38l0.65,18.23c0.1,2.72,1.1,5.19,2.7,7.15c1.03,1.26,2.3,2.3,3.74,3.06
							c0.82,0.43,1.7,0.76,2.62,0.99c1.03,0.26,2.11,0.39,3.22,0.37l4.6-0.11c2.61-0.06,5.09-0.78,7.33-1.98
							c1.76-0.94,3.38-2.19,4.8-3.65c4.01-4.11,6.5-9.94,6.39-15.72L215.86,218.54z"/>
					</g>
					<path class="st22" d="M214.72,230.12c0.82-2.36,1.26-4.85,1.22-7.33l-0.08-4.24c-0.19-10.53-8.92-16.9-19.45-16.64l-4.84,0.12
						c-1.46,0.04-2.85,0.33-4.13,0.83C218,199.5,216,226.5,214.72,230.12z"/>
				</g>
			</g>
			<g>
				<g>
					<path class="st16" d="M117,201.21c-8.74-1.12-15.04,1.29-15.04,1.29s5.56,39.16,15.04,38.5V201.21z"/>
					<g>
						<path class="st16" d="M128.22,236.07c-0.75,5.26-5.53,7.25-11.22,7.7v-0.03C122.72,243.23,127.47,241.2,128.22,236.07z"/>
						<path class="st16" d="M120.74,239.82c1.6-1.96,2.61-4.43,2.7-7.15l0.65-18.23c0.18-5.04-2.77-9.45-7.1-11.38v-0.13
							c3.11,0.45,4.3,0.29,5.89,0.12c4.07-0.42,7.91,2.41,8.34,6.48c0.02,0.22,0.04,0.45,0.04,0.68c0.01,0.31,0,0.63-0.02,0.95
							c-0.11,2.46-1.11,4.3-2.71,5.67c1.32,1.65,2.08,3.86,1.98,6.26c-0.12,2.86-1.47,4.88-3.56,6.3c0.75,1.29,1.21,2.83,1.32,4.48
							c-0.01-0.12-0.02-0.24-0.03-0.35C127.39,237.03,124.5,238.91,120.74,239.82z"/>
						<path class="st16" d="M128.22,236.07c0.05-0.36,0.08-0.74,0.1-1.13C128.31,235.33,128.27,235.7,128.22,236.07z"/>
						<path class="st19" d="M128.22,236.07L128.22,236.07L128.22,236.07z"/>
						<path class="st19" d="M128.28,233.88c0.03,0.34,0.05,0.69,0.04,1.04v0.01v-0.01C128.33,234.57,128.3,234.23,128.28,233.88z"/>
						<path class="st19" d="M117,243.74c-0.86,0.08-1.73,0.12-2.62,0.13c0.92-0.23,1.8-0.56,2.62-0.99V243.74z"/>
						<path class="st19" d="M120.74,239.82c3.75-0.91,6.65-2.8,7.5-6.3c0.01,0.12,0.02,0.24,0.03,0.35
							c0.02,0.34,0.05,0.69,0.04,1.04v0.01c-0.01,0.39-0.04,0.77-0.1,1.13v0.01c-0.75,5.13-5.5,7.16-11.22,7.67v-0.86
							C118.45,242.13,119.72,241.08,120.74,239.82z"/>
						<path class="st11" d="M88.1,218.54c0.19-10.53,8.92-16.9,19.45-16.64l4.84,0.12c1.64,0.04,3.2,0.41,4.61,1.04
							c4.32,1.94,7.27,6.35,7.1,11.38l-0.65,18.23c-0.1,2.72-1.1,5.19-2.7,7.15c-1.03,1.26-2.3,2.3-3.74,3.06
							c-0.82,0.43-1.7,0.76-2.62,0.99c-1.03,0.26-2.11,0.39-3.22,0.37l-4.6-0.11c-2.61-0.06-5.09-0.78-7.33-1.98
							c-1.76-0.94-3.38-2.19-4.8-3.65c-4.01-4.11-6.5-9.94-6.39-15.72L88.1,218.54z"/>
					</g>
					<path class="st22" d="M89.24,230.12c-0.82-2.36-1.26-4.85-1.22-7.33l0.08-4.24c0.19-10.53,8.92-16.9,19.45-16.64l4.84,0.12
						c1.46,0.04,2.85,0.33,4.13,0.83C85.96,199.5,87.96,226.5,89.24,230.12z"/>
				</g>
			</g>
		</g>
	</g>
</g>
</svg>
