<?xml version="1.0" encoding="UTF-8"?>
<svg width="1013px" height="845px" viewBox="0 0 1013 845" version="1.1" xmlns="http://www.w3.org/2000/svg">
    <!-- Generator: Sketch 60.1 (88133) - https://sketch.com -->
    <title>undraw_new_ideas_jdea (2)</title>
    <desc>Created with Sketch.</desc>
    <g id="Page-1" stroke="none" stroke-width="1" fill="none" fill-rule="evenodd">
        <g id="undraw_new_ideas_jdea-(2)" transform="translate(506.000000, 422.500000) scale(-1, 1) translate(-506.000000, -422.500000) translate(-1.000000, 0.000000)" fill-rule="nonzero">
            <path d="M956.998789,270.31 C956.998789,305.48 948.66872,334.43 934.21882,359.23 C929.44963,367.398594 924.035757,375.173304 918.02882,382.48 C864.90882,447.45 766.14882,483.01 676.88882,540.61 C413.40882,710.63 384.86882,438.19 396.76882,270.31 C401.56882,202.57 427.94882,140.52 469.85882,93.01 C478.660597,83.0178561 488.168369,73.6704963 498.30882,65.04 C545.88882,24.52 607.35882,-5.68434189e-14 676.88882,-5.68434189e-14 C796.17882,-5.68434189e-14 898.04882,71.95 938.43882,173.34 C950.718368,204.194021 957.016951,237.102206 956.998789,270.31 L956.998789,270.31 Z" id="Path" fill="#F46B45"></path>
            <path d="M736.56883,60.91998 L469.85883,93.00998 C478.660607,83.0178361 488.168379,73.6704763 498.30883,65.03998 L736.56883,60.91998 Z" id="Path" fill="#D0CDE1"></path>
            <path d="M934.21883,359.22998 C929.44964,367.398574 924.035767,375.173284 918.02883,382.47998 L689.56883,354.99998 L934.21883,359.22998 Z" id="Path" fill="#D0CDE1"></path>
            <path d="M947.75873,201.21997 L560.56879,150.99997 L938.43879,173.33997 C942.06786,182.450423 945.179462,191.75858 947.75873,201.21997 Z" id="Path" fill="#D0CDE1"></path>
            <path d="M423.03336,72.00214 C423.03336,72.69214 423.01336,73.37214 422.95336,74.04214 C422.124723,85.4049264 414.493229,95.1323521 403.654209,98.6416542 C392.815189,102.150956 380.930636,98.742156 373.599574,90.0211998 C366.268511,81.3002435 364.953221,69.0066463 370.27336,58.93214 C370.87536,57.778315 371.564002,56.6718085 372.33336,55.62214 C379.191743,46.1097762 391.253009,41.8815257 402.549619,45.0293953 C413.846229,48.1772649 421.9827,58.0337386 422.93336,69.72214 C423.00333,70.47211 423.03336,71.23212 423.03336,72.00214 Z" id="Path" fill="#F46B45"></path>
            <path d="M423.03336,72.00214 C423.03336,72.69214 423.01336,73.37214 422.95336,74.04214 L381.03336,69.00214 L422.93336,69.72214 C423.00333,70.47211 423.03336,71.23212 423.03336,72.00214 Z" id="Path" fill="#D0CDE1"></path>
            <path d="M413.03336,86.11212 L374.25336,90.78212 C373.152565,89.5549699 372.162066,88.2331895 371.29336,86.83212 L413.03336,86.11212 Z" id="Path" fill="#D0CDE1"></path>
            <path d="M402.03336,55.11212 L370.27336,58.93212 C370.87536,57.778295 371.564002,56.6717885 372.33336,55.62212 L402.03336,55.11212 Z" id="Path" fill="#D0CDE1"></path>
            <path d="M806.76626,576.12783 C806.4428,576.73732 806.10635,577.32858 805.73926,577.89226 C799.680714,587.54075 788.379713,592.555689 777.160353,590.574454 C765.940993,588.593219 757.041125,580.010995 754.65363,568.871013 C752.266134,557.73103 756.867229,546.25531 766.28926,539.85026 C767.361898,539.11327 768.488887,538.458693 769.66053,537.89216 C780.177819,532.704735 792.813862,534.62385 801.316732,542.699984 C809.819602,550.776119 812.386235,563.296701 807.74674,574.06693 C807.45697,574.76228 807.12722,575.44765 806.76626,576.12783 Z" id="Path" fill="#F46B45"></path>
            <path d="M806.76626,576.12783 C806.4428,576.73732 806.10635,577.32858 805.73926,577.89226 L771.07323,553.78934 L807.74677,574.06697 C807.45697,574.76228 807.12722,575.44765 806.76626,576.12783 Z" id="Path" fill="#D0CDE1"></path>
            <path d="M791.31868,583.90368 L754.87442,569.84968 C754.477341,568.249689 754.222047,566.617816 754.1115,564.973 L791.31868,583.90368 Z" id="Path" fill="#D0CDE1"></path>
            <path d="M796.13419,551.36428 L766.28929,539.85028 C767.361928,539.11329 768.488917,538.458713 769.66056,537.89218 L796.13419,551.36428 Z" id="Path" fill="#D0CDE1"></path>
            <path d="M1005.07864,93.45254 C1005.5604,93.94654 1006.02084,94.44731 1006.44564,94.96884 C1013.78596,103.682042 1015.11426,115.97427 1009.80477,126.054419 C1004.49528,136.134568 993.607041,141.992006 982.269718,140.867182 C970.932395,139.742357 961.40738,131.859632 958.18209,120.93271 C957.80746,119.686368 957.527898,118.413407 957.34581,117.12478 C955.614198,105.526322 961.296724,94.0781152 971.581849,88.4443837 C981.866973,82.8106522 994.573696,84.1860492 1003.41512,91.89007 C1003.98888,92.37816 1004.54102,92.90128 1005.07864,93.45254 Z" id="Path" fill="#F46B45"></path>
            <path d="M1005.07864,93.45254 C1005.5604,93.94654 1006.02084,94.44731 1006.44564,94.96884 L972.91609,120.62922 L1003.41509,91.89007 C1003.98888,92.37816 1004.54102,92.90128 1005.07864,93.45254 Z" id="Path" fill="#D0CDE1"></path>
            <path d="M1007.7712,110.53592 L983.26904,140.95538 C981.624188,140.84542 979.992228,140.590708 978.3921,140.1942 L1007.7712,110.53592 Z" id="Path" fill="#D0CDE1"></path>
            <path d="M978.25208,96.02312 L958.18208,120.93271 C957.80745,119.686368 957.527888,118.413407 957.3458,117.12478 L978.25208,96.02312 Z" id="Path" fill="#D0CDE1"></path>
            <path d="M479.78036,609.45319 C479.78036,609.45319 541.22593,612.01343 541.22593,627.37482 C541.22593,642.73621 472.09966,627.37482 472.09966,627.37482 L479.78036,609.45319 Z" id="Path" fill="#A0616A"></path>
            <path d="M387.612,844.99456 L272.40155,837.31386 L267.28108,775.86828 L241.67876,829.63316 L129.02854,814.27176 C131.58877,716.98294 172.55254,622.25435 175.11272,609.45318 C177.6729,596.65201 183.79195,543.75754 183.79195,543.75754 C194.98015,520.02429 253.60922,517.7969 299.56557,519.94741 C318.61386,520.81796 335.51133,522.45641 345.93134,523.63415 C352.81822,524.40215 356.88921,524.96552 356.88921,524.96552 C375.24588,543.88567 387.07445,569.66707 394.34542,598.46969 C420.56217,702.23599 387.612,844.99456 387.612,844.99456 Z" id="Path" fill="#2F2E41"></path>
            <circle id="Oval" fill="#A0616A" cx="259.60038" cy="187.01487" r="64.00581"></circle>
            <path d="M216.07644,202.37628 C216.07644,202.37628 198.15483,281.74347 169.99226,304.78556 C141.82969,327.82765 280.08226,304.78556 280.08226,304.78556 C280.08226,304.78556 249.35948,253.58091 272.40157,230.53882 C295.44366,207.49673 216.07644,202.37628 216.07644,202.37628 Z" id="Path" fill="#A0616A"></path>
            <path d="M346.64828,530.08599 L304.17383,534.79673 L185.35365,548.00762 C185.35365,548.00762 184.79047,546.49701 183.79195,543.75755 C175.16395,520.22901 133.61146,405.73555 129.02854,371.35155 C123.90808,332.94806 177.67295,286.86388 177.67295,286.86388 C177.67295,286.86388 228.8776,276.62295 244.23895,276.62295 C259.6003,276.62295 321.04595,299.66504 321.04595,299.66504 L343.95995,505.78937 L345.93138,523.63411 L346.64828,530.08599 Z" id="Path" fill="#D0CDE1"></path>
            <path d="M394.34542,598.4697 L308.24483,548.00762 C308.24483,548.00762 306.73407,543.09186 304.17383,534.79673 C302.89372,530.64917 301.33233,525.63122 299.5656,519.94742 C289.63189,488.04687 272.96475,435.4085 259.60042,396.95392 C239.11856,338.06858 338.96761,501.92344 338.96761,501.92344 L343.95994,505.78944 L345.93137,523.63418 C352.81825,524.40218 356.88924,524.96555 356.88924,524.96555 C375.24588,543.88568 387.07445,569.66708 394.34542,598.4697 Z" id="Path" fill="#000000" opacity="0.15"></path>
            <path d="M280.08224,304.78556 C280.08224,304.78556 254.47992,338.06856 274.96178,396.95392 C295.44364,455.83928 323.60619,548.00762 323.60619,548.00762 L472.09966,635.05552 L492.58152,609.45319 L354.32898,501.92344 C354.32898,501.92344 349.20851,307.34579 323.60619,299.66509 C298.00387,291.98439 280.08224,304.78556 280.08224,304.78556 Z" id="Path" fill="#D0CDE1"></path>
            <path d="M153.35075,528.80588 C153.35075,528.80588 189.194,603.05261 204.55539,595.37188 C219.91678,587.69115 166.15191,510.88428 166.15191,510.88428 L153.35075,528.80588 Z" id="Path" fill="#A0616A"></path>
            <path d="M149.5104,325.26741 L13.81809,437.91763 C13.81809,437.91763 -37.38655,473.76089 57.34209,499.36321 C152.07073,524.96553 159.75133,540.32692 159.75133,540.32692 C159.75133,540.32692 169.99226,507.04392 182.79342,512.16437 L72.70342,458.39949 L162.31155,404.63461 L149.5104,325.26741 Z" id="Path" fill="#D0CDE1"></path>
            <path d="M94.97432,239.54882 C102.09599,236.02191 117.82221,228.90403 131.21765,220.32862 C130.27833,192.431 133.71372,167.10601 143.76987,153.682 C149.41449,140.86548 161.2678,128.0339 170.55127,117.92875 C193.34927,93.11338 243.76085,79.26167 252.70189,91.66031 C320.32723,92.9954 327.44657,146.00338 327.44657,146.00338 C327.09477,168.17525 304.051,168.87683 283.86481,168.06888 C285.67246,183.20535 280.8551,198.93312 266.90529,205.90803 C240.22929,219.24603 232.22641,236.58544 245.56448,248.58976 C258.90255,260.59408 282.91098,292.60524 250.89971,300.60797 C218.88844,308.6107 214.88696,324.61651 224.22371,331.28549 C233.56046,337.95447 202.88275,319.28128 202.88275,319.28128 C202.88275,319.28128 197.54763,351.29255 169.53775,343.2897 C167.02762,342.57249 164.51883,340.73481 162.05234,337.98639 C154.48756,346.29839 147.73889,351.21297 142.65267,351.240533 C113.52241,351.39445 117.01562,319.13027 117.01562,319.13027 C117.01562,319.13027 82.43953,328.84076 93.22852,324.93605 C104.01751,321.03134 104.47969,304.53958 75.81162,288.2023 C47.14355,271.86502 78.89362,247.51228 94.97432,239.54882 Z" id="Path" fill="#2F2E41"></path>
            <path d="M451.91946,323.11968 L453.05233,327.42611 C454.123205,333.434126 455.678276,339.345683 457.70233,345.10296 L490.92868,471.41078 C493.095852,479.649028 499.941062,485.818504 508.35945,487.12085 L576.11916,497.60346 C585.098541,498.992537 593.976603,494.562013 598.26526,486.55163 L662.65912,366.27537 C664.671213,362.943086 666.509781,359.509061 668.16747,355.98703 L670.35374,351.90336 L670.0128,351.85841 C688.725656,307.591614 677.625441,256.341847 642.273314,223.785014 C606.921187,191.228182 554.932519,184.377507 512.353401,206.665147 C469.774282,228.952787 445.776886,275.577655 452.3838,323.1809 L451.91946,323.11968 Z" id="Path" fill="#F49D45"></path>
            <path d="M580.27753,505.85568 C579.084102,505.85568 577.892441,505.763894 576.71307,505.58126 L505.88544,494.62326 C496.691922,493.202623 489.216319,486.46495 486.85126,477.46798 L452.12083,345.4421 C449.998283,339.398021 448.36701,333.192492 447.2429,326.88595 L446.36448,321.11007 C441.573478,283.700509 454.644834,246.214561 481.658133,219.895164 C508.671432,193.575767 546.48477,181.484117 583.75702,187.24679 L583.45038,189.22335 C546.578657,183.541349 509.190625,195.620141 482.612569,221.800591 C456.034513,247.981042 443.393588,285.182778 448.51922,322.13595 L449.19452,326.45626 C450.310148,332.709491 451.927682,338.862693 454.03143,344.85617 L488.78583,476.95917 C490.948054,485.186524 497.784093,491.347897 506.1911,492.64667 L577.01874,503.60467 C585.983804,504.982446 594.844022,500.560748 599.13299,492.56854 L600.89667,493.5119 C596.819301,501.107803 588.898588,505.849588 580.27753,505.85568 L580.27753,505.85568 Z" id="Path" fill="#D0CDE1"></path>
            <rect id="Rectangle" fill="#D0CDE1" transform="translate(577.910347, 411.170389) rotate(-69.884990) translate(-577.910347, -411.170389) " x="515.253372" y="409.877009" width="125.31395" height="2.58676"></rect>
            <rect id="Rectangle" fill="#D0CDE1" transform="translate(529.335940, 403.655787) rotate(-2.515830) translate(-529.335940, -403.655787) " x="528.04256" y="340.998812" width="2.58676" height="125.31395"></rect>
            <path d="M574.2899,565.71076 L483.53257,551.67035 C482.127698,551.44464 481.168817,550.12676 481.386352,548.720599 C481.603886,547.314438 482.916168,546.347908 484.32357,546.55726 L575.0809,560.59767 C575.998633,560.734183 576.772982,561.351714 577.110275,562.216066 C577.447568,563.080417 577.296149,564.059208 576.713441,564.781235 C576.130733,565.503261 575.205983,565.85794 574.2899,565.71076 L574.2899,565.71076 Z" id="Path" fill="#3F3D56"></path>
            <path d="M576.61705,546.4378 L485.85972,532.39739 C484.941987,532.260877 484.167638,531.643346 483.830345,530.778994 C483.493052,529.914643 483.644471,528.935852 484.227179,528.213825 C484.809887,527.491799 485.734637,527.13712 486.65072,527.2843 L577.40806,541.32471 C578.325793,541.461223 579.100142,542.078754 579.437435,542.943106 C579.774728,543.807457 579.623309,544.786248 579.040601,545.508275 C578.457893,546.230301 577.533143,546.58498 576.61706,546.4378 L576.61705,546.4378 Z" id="Path" fill="#3F3D56"></path>
            <path d="M578.9442,527.16484 L488.18683,513.12443 C486.781958,512.89872 485.823077,511.58084 486.040612,510.174679 C486.258146,508.768518 487.570428,507.801988 488.97783,508.01134 L579.73516,522.05175 C581.140032,522.27746 582.098913,523.59534 581.881378,525.001501 C581.663844,526.407662 580.351562,527.374192 578.94416,527.16484 L578.9442,527.16484 Z" id="Path" fill="#3F3D56"></path>
            <path d="M526.09018,576.92591 C544.0924,579.71091 560.23828,571.93543 562.15296,559.55891 L496.96108,549.47355 C495.04639,561.85006 508.08795,574.14092 526.09018,576.92591 Z" id="Path" fill="#3F3D56"></path>
            <path d="M558.71362,327.09949 C554.84126,326.50106 551.63745,323.4401 549.88098,321.38849 C549.30503,320.7159 548.74448,320.0182 548.18224,319.31897 C546.13673,316.77272 544.20543,314.36813 541.51582,313.11419 C535.57896,310.34428 528.58373,314.21319 522.52718,318.36403 L521.06393,316.2306 C527.72269,311.66546 535.48755,307.44847 542.60972,310.76922 C545.84465,312.27816 548.05843,315.03386 550.19878,317.69831 C550.74378,318.37698 551.28778,319.05358 551.84571,319.70613 C553.67207,321.83885 557.31454,325.29489 561.21745,324.49779 C562.862161,324.018416 564.391819,323.208626 565.7129,322.11793 C566.719377,321.366873 567.783073,320.695712 568.89425,320.11059 C573.502017,317.901086 578.986097,318.676149 582.80109,322.07604 C583.46621,322.706249 584.096215,323.372512 584.68826,324.07182 C585.85198,325.39838 586.95055,326.65032 588.38073,327.10548 C590.49508,327.78148 592.72973,326.57295 595.09759,325.29616 C597.53959,323.97842 600.06396,322.61528 602.92749,322.95154 C603.02035,322.96271 603.11426,322.97532 603.20664,322.98961 C608.30225,323.77792 610.65148,329.41324 611.98076,333.61898 L609.51351,334.39788 C607.70733,328.68105 605.50769,325.83806 602.62451,325.52113 C600.57328,325.27985 598.51051,326.39359 596.32651,327.57229 C593.58871,329.05069 590.75503,330.5788 587.59541,329.57042 C585.48058,328.8975 584.08851,327.31192 582.74341,325.77834 C582.213315,325.150649 581.649676,324.552072 581.05496,323.98523 C578.018696,321.326189 573.696914,320.715285 570.0426,322.42858 C569.052307,322.95526 568.104064,323.557455 567.20629,324.22982 C565.60096,325.538988 563.737008,326.494006 561.73668,327.03224 C560.741102,327.235069 559.717233,327.257846 558.71362,327.09949 L558.71362,327.09949 Z" id="Path" fill="#D0CDE1"></path>
        </g>
    </g>
</svg>