<?xml version="1.0" encoding="UTF-8"?>
<svg width="94px" height="49px" viewBox="0 0 94 49" version="1.1" xmlns="http://www.w3.org/2000/svg">
    <!-- Generator: Sketch 58 (84663) - https://sketch.com -->
    <title>mask</title>
    <desc>Created with Sketch.</desc>
    <g id="Page-1" stroke="none" stroke-width="1" fill="none" fill-rule="evenodd">
        <g id="mask" fill="#000000" fill-rule="nonzero">
            <path d="M69.0400062,0.354 C59.1914529,0.354 34.3903923,0.354 24.5409031,0.354 C10.9883803,0.354 0,11.0981316 0,24.354 C0,37.6079967 10.9883803,48.354 24.5418389,48.354 C34.3903923,48.354 39.2978242,34.4926571 46.7909226,34.4926571 C54.2840209,34.4926571 59.1914529,48.354 69.0400062,48.354 C82.5934649,48.354 93.5818451,37.6079967 93.5818451,24.354 C93.5818451,11.0981316 82.5934649,0.354 69.0400062,0.354 Z M24.2311472,32.4497654 C17.9181159,32.4497654 12.8001248,26.9200142 12.8001248,20.1007051 C12.8001248,13.2785886 35.6621695,13.2785886 35.6621695,20.1007051 C35.6612337,26.9200142 30.5432426,32.4497654 24.2311472,32.4497654 Z M69.350698,32.4497654 C63.0386025,32.4497654 57.9196756,26.9200142 57.9196756,20.1007051 C57.9196756,13.2785886 80.7817203,13.2785886 80.7817203,20.1007051 C80.7817203,26.9200142 75.6646651,32.4497654 69.350698,32.4497654 Z" id="Shape"></path>
        </g>
    </g>
</svg>